0
SECTION
2
HEADER
9
$INSUNITS
70
4
9
$ACADVER
1
AC1014
9
$HANDSEED
5
FFFF
0
ENDSEC
0
SECTION
2
TABLES
0
TABLE
2
VPORT
5
8
100
AcDbSymbolTable
0
ENDTAB
0
TABLE
2
LTYPE
5
5
100
AcDbSymbolTable
0
LTYPE
5
14
100
AcDbSymbolTableRecord
100
AcDbLinetypeTableRecord
2
BYBLOCK
70
0
0
LTYPE
5
15
100
AcDbSymbolTableRecord
100
AcDbLinetypeTableRecord
2
BYLAYER
70
0
0
ENDTAB
0
TABLE
2
LAYER
5
2
100
AcDbSymbolTable
70
2
0
LAYER
5
50
100
AcDbSymbolTableRecord
100
AcDbLayerTableRecord
2
0
70
0
6
CONTINUOUS
0
ENDTAB
0
TABLE
2
STYLE
5
3
100
AcDbSymbolTable
70
1
0
STYLE
5
11
100
AcDbSymbolTableRecord
100
AcDbTextStyleTableRecord
2
STANDARD
70
0
0
ENDTAB
0
TABLE
2
VIEW
5
6
100
AcDbSymbolTable
70
0
0
ENDTAB
0
TABLE
2
UCS
5
7
100
AcDbSymbolTable
70
0
0
ENDTAB
0
TABLE
2
APPID
5
9
100
AcDbSymbolTable
70
2
0
APPID
5
12
100
AcDbSymbolTableRecord
100
AcDbRegAppTableRecord
2
ACAD
70
0
0
ENDTAB
0
TABLE
2
DIMSTYLE
5
A
100
AcDbSymbolTable
70
1
0
ENDTAB
0
TABLE
2
BLOCK_RECORD
5
1
100
AcDbSymbolTable
70
1
0
BLOCK_RECORD
5
1F
100
AcDbSymbolTableRecord
100
AcDbBlockTableRecord
2
*MODEL_SPACE
0
BLOCK_RECORD
5
1B
100
AcDbSymbolTableRecord
100
AcDbBlockTableRecord
2
*PAPER_SPACE
0
ENDTAB
0
ENDSEC
0
SECTION
2
BLOCKS
0
BLOCK
5
20
100
AcDbEntity
100
AcDbBlockBegin
2
*MODEL_SPACE
0
ENDBLK
5
21
100
AcDbEntity
100
AcDbBlockEnd
0
BLOCK
5
1C
100
AcDbEntity
100
AcDbBlockBegin
2
*PAPER_SPACE
0
ENDBLK
5
1D
100
AcDbEntity
100
AcDbBlockEnd
0
ENDSEC
0
SECTION
2
ENTITIES
0
LWPOLYLINE
5
100
100
AcDbEntity
8
0
100
AcDbPolyline
90
6
70
1
43
0.0
10
68.60992097269326
20
-0.85238068023218561
10
68.60992097269326
20
9.7482840984074937
10
88.035298702643246
20
9.7482840984074937
10
88.035298702643246
20
4.0767122255273591
10
85.517561400982501
20
4.0767122255273591
10
85.517561400982501
20
-0.85238068023218538
0
LWPOLYLINE
5
101
100
AcDbEntity
8
0
100
AcDbPolyline
90
4
70
1
43
0.0
10
49.03970871922759
20
-8.923114837060897
10
65.741879322483669
20
-8.923114837060897
10
65.741879322483669
20
-21.120928960449739
10
49.03970871922759
20
-21.120928960449739
0
LWPOLYLINE
5
102
100
AcDbEntity
8
0
100
AcDbPolyline
90
4
70
1
43
0.0
10
69.34617019817145
20
-8.923114837060897
10
85.014013940650344
20
-8.923114837060897
10
85.014013940650344
20
-21.120928960449739
10
69.34617019817145
20
-21.120928960449739
0
LWPOLYLINE
5
103
100
AcDbEntity
8
0
100
AcDbPolyline
90
4
70
1
43
0.0
10
88.860228198171441
20
-8.923114837060897
10
104.51381078881829
20
-8.923114837060897
10
104.51381078881829
20
-21.120928960449739
10
88.860228198171441
20
-21.120928960449739
0
LWPOLYLINE
5
104
100
AcDbEntity
8
0
100
AcDbPolyline
90
24
70
1
43
0.0
10
105.99398152876651
20
-0.85238068023218549
10
109.03646083803477
20
-0.85238068023218538
10
109.03646083803477
20
1.1469815472312384
10
112.4802390496765
20
1.1469815472312384
10
112.4802390496765
20
-1.0960935033392305
10
114.4486518491567
20
-1.0960935033392305
10
114.4486518491567
20
-3.6138308049999601
10
122.73429642371295
20
-3.6138308049999601
10
122.73429642371295
20
-9.5648462452889582
10
126.18734709799001
20
-9.5648462452889582
10
126.18734709799001
20
-10.938157500740262
10
130.33260180413774
20
-10.938157500740262
10
130.33260180413774
20
-16.248294355151984
10
126.18734709799001
20
-16.248294355151984
10
126.18734709799001
20
-22.199309795440982
10
130.33260180413774
20
-22.199309795440982
10
130.33260180413774
20
-32.178704918387147
10
124.51960105579964
20
-32.178704918387147
10
124.51960105579964
20
-23.938837385679307
10
112.25135384043462
20
-23.938837385679307
10
112.25135384043462
20
-21.120928960449739
10
108.63496753441285
20
-21.120928960449739
10
108.63496753441285
20
-8.923114837060897
10
105.99398152876651
20
-8.923114837060897
0
LWPOLYLINE
5
105
100
AcDbEntity
8
0
100
AcDbPolyline
90
4
70
1
43
0.0
10
85.38023027543737
20
-42.214893233979325
10
68.757979670570464
20
-42.214893233979318
10
68.757979670570464
20
-31.568890864796487
10
85.38023027543737
20
-31.568890864796487
0
LWPOLYLINE
5
106
100
AcDbEntity
8
0
100
AcDbPolyline
90
8
70
1
43
0.0
10
89.637495167336425
20
-42.214893233979325
10
89.637495167336425
20
-31.568890864796487
10
112.25135384043462
20
-31.568890864796487
10
112.25135384043462
20
-27.96721706833647
10
122.87162754925805
20
-27.96721706833647
10
122.87162754925805
20
-36.232390991854551
10
105.99398152876651
20
-36.232390991854551
10
105.99398152876651
20
-42.214893233979318
0
LWPOLYLINE
5
107
100
AcDbEntity
8
0
100
AcDbPolyline
90
6
70
1
43
0.0
10
110.51182625019629
20
12.01705102590525
10
126.18734709799001
20
12.017051025905252
10
126.18734709799001
20
1.4216437983214991
10
116.27973352309178
20
1.4216437983214991
10
116.27973352309178
20
4.671813769556258
10
110.51182625019629
20
4.671813769556258
0
LWPOLYLINE
5
108
100
AcDbEntity
8
0
100
AcDbPolyline
90
4
70
1
43
0.0
10
82.461643393754315
20
44.176269602948921
10
71.648732711782586
20
44.176269602948921
10
71.648732711782586
20
51.736799775203515
10
82.461643393754315
20
51.736799775203515
0
LWPOLYLINE
5
109
100
AcDbEntity
8
0
100
AcDbPolyline
90
4
70
1
43
0.0
10
111.93443176197215
20
41.727401061504601
10
108.21100755645705
20
41.727401061504601
10
108.21100755645705
20
46.326925080082077
10
111.93443176197215
20
46.326925080082077
0
LWPOLYLINE
5
110
100
AcDbEntity
8
0
100
AcDbPolyline
90
4
70
1
43
0.0
10
99.01195951930211
20
40.788722690366342
10
94.318567663610793
20
40.788722690366342
10
94.318567663610793
20
45.482114546057645
10
99.01195951930211
20
45.482114546057645
0
CIRCLE
5
111
100
AcDbEntity
8
0
100
AcDbCircle
10
47.149646138171441
20
-40.720955364796481
30
0
40
1.5999993400000001
210
0
220
0
230
1
0
CIRCLE
5
112
100
AcDbEntity
8
0
100
AcDbCircle
10
130.74964657817145
20
-40.720955364796481
30
0
40
1.5999993400000001
210
0
220
0
230
1
0
CIRCLE
5
113
100
AcDbEntity
8
0
100
AcDbCircle
10
47.149646138171441
20
50.623837815203522
30
0
40
1.5999993400000001
210
0
220
0
230
1
0
CIRCLE
5
114
100
AcDbEntity
8
0
100
AcDbCircle
10
130.74964657817145
20
50.623837815203522
30
0
40
1.5999993400000001
210
0
220
0
230
1
0
LWPOLYLINE
5
115
100
AcDbEntity
8
0
100
AcDbPolyline
90
14
70
1
43
0.0
10
63.948629650378464
20
42.374117822620292
10
68.535925091214963
20
42.374117822620292
10
68.535925091214963
20
25.390202559523274
10
63.457133710288844
20
25.390202559523274
10
63.457133710288844
20
19.492251278447789
10
52.589612368307144
20
19.492251278447789
10
52.589612368307144
20
24.352600019334069
10
49.586026067759441
20
24.352600019334069
10
49.586026067759441
20
28.393788860070977
10
47.019325047291417
20
28.393788860070977
10
47.019325047291417
20
37.568379741743961
10
59.79821948962163
20
37.568379741743961
10
59.79821948962163
20
38.979213020643741
10
63.948629650378464
20
38.979213020643741
0
LWPOLYLINE
5
116
100
AcDbEntity
8
0
100
AcDbPolyline
90
6
70
1
43
0.0
10
107.30743332080991
20
1.1469815472312384
10
97.602700448953996
20
1.1469815472312384
10
97.602700448953996
20
4.0767122255273591
10
91.056583464636105
20
4.0767122255273591
10
91.056583464636105
20
12.01705102590525
10
107.30743332080991
20
12.01705102590525
0
LWPOLYLINE
5
117
100
AcDbEntity
8
0
100
AcDbPolyline
90
16
70
1
43
0.0
10
131.94964402434346
20
-43.721000529102881
42
0.41444487183083978
10
133.74964707610141
20
-41.921001292042483
10
133.74964707610107
20
20.413144180858502
10
70.413558478623102
20
20.413144180858502
10
70.413558478623102
20
39.662308645000422
10
133.74964707610116
20
39.662308645000422
10
133.7496470761009
20
51.824001454533509
42
0.41444372153190329
10
131.94964402434346
20
53.623996876893791
10
94.10680886910211
20
53.62399687689738
10
94.10680886910211
20
46.408012344102445
10
83.815886161986768
20
46.408012344102445
10
83.815886161986768
20
53.623996876898438
10
45.949646885366455
20
53.623996876903199
42
0.41444344352649293
10
44.14964717146843
20
51.824001454533501
10
44.149647171468473
20
-41.92100129204249
42
0.41444459382399429
10
45.949646885366434
20
-43.721000529103485
0
ENDSEC
0
SECTION
2
OBJECTS
0
DICTIONARY
5
C
100
AcDbDictionary
3
ACAD_GROUP
350
D
3
ACAD_MLINESTYLE
350
17
0
DICTIONARY
5
D
100
AcDbDictionary
0
DICTIONARY
5
1A
330
C
100
AcDbDictionary
0
DICTIONARY
5
17
100
AcDbDictionary
0
ENDSEC
0
EOF
