0
SECTION
2
HEADER
9
$INSUNITS
70
4
9
$ACADVER
1
AC1014
9
$HANDSEED
5
FFFF
0
ENDSEC
0
SECTION
2
TABLES
0
TABLE
2
VPORT
5
8
100
AcDbSymbolTable
0
ENDTAB
0
TABLE
2
LTYPE
5
5
100
AcDbSymbolTable
0
LTYPE
5
14
100
AcDbSymbolTableRecord
100
AcDbLinetypeTableRecord
2
BYBLOCK
70
0
0
LTYPE
5
15
100
AcDbSymbolTableRecord
100
AcDbLinetypeTableRecord
2
BYLAYER
70
0
0
ENDTAB
0
TABLE
2
LAYER
5
2
100
AcDbSymbolTable
70
2
0
LAYER
5
50
100
AcDbSymbolTableRecord
100
AcDbLayerTableRecord
2
0
70
0
6
CONTINUOUS
0
ENDTAB
0
TABLE
2
STYLE
5
3
100
AcDbSymbolTable
70
1
0
STYLE
5
11
100
AcDbSymbolTableRecord
100
AcDbTextStyleTableRecord
2
STANDARD
70
0
0
ENDTAB
0
TABLE
2
VIEW
5
6
100
AcDbSymbolTable
70
0
0
ENDTAB
0
TABLE
2
UCS
5
7
100
AcDbSymbolTable
70
0
0
ENDTAB
0
TABLE
2
APPID
5
9
100
AcDbSymbolTable
70
2
0
APPID
5
12
100
AcDbSymbolTableRecord
100
AcDbRegAppTableRecord
2
ACAD
70
0
0
ENDTAB
0
TABLE
2
DIMSTYLE
5
A
100
AcDbSymbolTable
70
1
0
ENDTAB
0
TABLE
2
BLOCK_RECORD
5
1
100
AcDbSymbolTable
70
1
0
BLOCK_RECORD
5
1F
100
AcDbSymbolTableRecord
100
AcDbBlockTableRecord
2
*MODEL_SPACE
0
BLOCK_RECORD
5
1B
100
AcDbSymbolTableRecord
100
AcDbBlockTableRecord
2
*PAPER_SPACE
0
ENDTAB
0
ENDSEC
0
SECTION
2
BLOCKS
0
BLOCK
5
20
100
AcDbEntity
100
AcDbBlockBegin
2
*MODEL_SPACE
0
ENDBLK
5
21
100
AcDbEntity
100
AcDbBlockEnd
0
BLOCK
5
1C
100
AcDbEntity
100
AcDbBlockBegin
2
*PAPER_SPACE
0
ENDBLK
5
1D
100
AcDbEntity
100
AcDbBlockEnd
0
ENDSEC
0
SECTION
2
ENTITIES
0
CIRCLE
5
100
100
AcDbEntity
8
0
100
AcDbCircle
10
47.149646138171441
20
50.623837815203522
30
0
40
1.5999993400000001
210
0
220
-0
230
1
0
CIRCLE
5
101
100
AcDbEntity
8
0
100
AcDbCircle
10
47.149646138171441
20
-40.720955364796481
30
0
40
1.5999993400000001
210
0
220
-0
230
1
0
LWPOLYLINE
5
102
100
AcDbEntity
8
0
100
AcDbPolyline
90
8
70
1
43
0.0
10
106.3229114298895
20
-41.518807659603056
42
0.41421356237309243
10
108.82291142988953
20
-39.018807659603056
10
108.8229114298895
20
-24.118811074336403
42
0.41421356237309293
10
106.3229114298895
20
-21.618811074336406
10
71.726907856540677
20
-21.618811074336413
42
0.41421356237309293
10
69.226907856540677
20
-24.118811074336406
10
69.226907856540677
20
-39.018807659603056
42
0.41421356237309243
10
71.726907856540677
20
-41.518807659603041
0
CIRCLE
5
103
100
AcDbEntity
8
0
100
AcDbCircle
10
130.74964657817145
20
-40.720955364796481
30
0
40
1.5999993400000001
210
0
220
-0
230
1
0
CIRCLE
5
104
100
AcDbEntity
8
0
100
AcDbCircle
10
130.74964657817145
20
50.623837815203522
30
0
40
1.5999993400000001
210
0
220
-0
230
1
0
LWPOLYLINE
5
105
100
AcDbEntity
8
0
100
AcDbPolyline
90
16
70
1
43
0.0
10
105.99398152876651
20
-19.674809704281035
42
0.4142135623730937
10
108.49398152876648
20
-17.174809704281035
10
108.49398152876651
20
-2.2748131190143996
42
0.41421356237308976
10
105.99398152876651
20
0.22518688098561057
10
91.256916891495166
20
0.22518688098560502
42
-0.41421356237309465
10
88.756916891495166
20
2.7251868809856017
10
88.756916891495166
20
17.543745457543864
42
0.41421356237309398
10
86.256916891495166
20
20.04374545754386
10
71.726910885021681
20
20.043745457543864
42
0.41421356237309687
10
69.226910885021681
20
17.543745457543864
10
69.226910885021681
20
2.7251868809856017
42
-0.41421356237309359
10
66.726910885021681
20
0.22518688098559281
10
52.435863621311682
20
0.22518688098560224
42
0.41421356237309265
10
49.935863621311682
20
-2.2748131190143983
10
49.935863621311682
20
-17.174809704281035
42
0.41421356237309115
10
52.435863621311668
20
-19.674809704281031
0
LWPOLYLINE
5
106
100
AcDbEntity
8
0
100
AcDbPolyline
90
8
70
1
43
0.0
10
127.31093328047534
20
2.6261389552853149
42
0.4142135623730937
10
129.81093328047533
20
5.1261389552853176
10
129.81093328047533
20
20.026135977665515
42
0.41421356237309764
10
127.31093328047533
20
22.526135977665518
10
93.73778693602884
20
22.526135977665515
42
0.41421356237309503
10
91.23778693602884
20
20.026135977665515
10
91.23778693602884
20
5.126138955285314
42
0.41421356237309415
10
93.73778693602884
20
2.626138955285322
0
LWPOLYLINE
5
107
100
AcDbEntity
8
0
100
AcDbPolyline
90
8
70
1
43
0.0
10
44.149647171468445
20
51.824001454533501
10
44.149647171468473
20
-41.92100129204249
42
0.4144445938239914
10
45.949646885366434
20
-43.721000529103485
10
131.94964402434346
20
-43.721000529102881
42
0.41444487183083256
10
133.74964707610141
20
-41.921001292042483
10
133.7496470761009
20
51.824001454533509
42
0.41444372153190467
10
131.94964402434346
20
53.623996876893784
10
45.949646885366455
20
53.623996876902297
42
0.41444344352649443
0
ENDSEC
0
SECTION
2
OBJECTS
0
DICTIONARY
5
C
100
AcDbDictionary
3
ACAD_GROUP
350
D
3
ACAD_MLINESTYLE
350
17
0
DICTIONARY
5
D
100
AcDbDictionary
0
DICTIONARY
5
1A
330
C
100
AcDbDictionary
0
DICTIONARY
5
17
100
AcDbDictionary
0
ENDSEC
0
EOF
