0
SECTION
2
HEADER
9
$INSUNITS
70
4
9
$ACADVER
1
AC1014
9
$HANDSEED
5
FFFF
0
ENDSEC
0
SECTION
2
TABLES
0
TABLE
2
VPORT
5
8
100
AcDbSymbolTable
0
ENDTAB
0
TABLE
2
LTYPE
5
5
100
AcDbSymbolTable
0
LTYPE
5
14
100
AcDbSymbolTableRecord
100
AcDbLinetypeTableRecord
2
BYBLOCK
70
0
0
LTYPE
5
15
100
AcDbSymbolTableRecord
100
AcDbLinetypeTableRecord
2
BYLAYER
70
0
0
ENDTAB
0
TABLE
2
LAYER
5
2
100
AcDbSymbolTable
70
2
0
LAYER
5
50
100
AcDbSymbolTableRecord
100
AcDbLayerTableRecord
2
0
70
0
6
CONTINUOUS
0
ENDTAB
0
TABLE
2
STYLE
5
3
100
AcDbSymbolTable
70
1
0
STYLE
5
11
100
AcDbSymbolTableRecord
100
AcDbTextStyleTableRecord
2
STANDARD
70
0
0
ENDTAB
0
TABLE
2
VIEW
5
6
100
AcDbSymbolTable
70
0
0
ENDTAB
0
TABLE
2
UCS
5
7
100
AcDbSymbolTable
70
0
0
ENDTAB
0
TABLE
2
APPID
5
9
100
AcDbSymbolTable
70
2
0
APPID
5
12
100
AcDbSymbolTableRecord
100
AcDbRegAppTableRecord
2
ACAD
70
0
0
ENDTAB
0
TABLE
2
DIMSTYLE
5
A
100
AcDbSymbolTable
70
1
0
ENDTAB
0
TABLE
2
BLOCK_RECORD
5
1
100
AcDbSymbolTable
70
1
0
BLOCK_RECORD
5
1F
100
AcDbSymbolTableRecord
100
AcDbBlockTableRecord
2
*MODEL_SPACE
0
BLOCK_RECORD
5
1B
100
AcDbSymbolTableRecord
100
AcDbBlockTableRecord
2
*PAPER_SPACE
0
ENDTAB
0
ENDSEC
0
SECTION
2
BLOCKS
0
BLOCK
5
20
100
AcDbEntity
100
AcDbBlockBegin
2
*MODEL_SPACE
0
ENDBLK
5
21
100
AcDbEntity
100
AcDbBlockEnd
0
BLOCK
5
1C
100
AcDbEntity
100
AcDbBlockBegin
2
*PAPER_SPACE
0
ENDBLK
5
1D
100
AcDbEntity
100
AcDbBlockEnd
0
ENDSEC
0
SECTION
2
ENTITIES
0
CIRCLE
5
100
100
AcDbEntity
8
0
100
AcDbCircle
10
47.149646138171441
20
-40.720955364796481
30
0
40
1.5999993400000001
210
-0
220
0
230
1
0
CIRCLE
5
101
100
AcDbEntity
8
0
100
AcDbCircle
10
130.74964657817145
20
50.623837815203522
30
0
40
1.5999993400000001
210
-0
220
0
230
1
0
CIRCLE
5
102
100
AcDbEntity
8
0
100
AcDbCircle
10
130.74964657817145
20
-40.720955364796481
30
0
40
1.5999993400000001
210
-0
220
0
230
1
0
LINE
5
103
100
AcDbEntity
8
0
100
AcDbLine
10
90.292912353829408
20
-39.01881089949093
30
0
11
90.292909748630663
21
-24.118810899491166
31
0
0
ARC
5
104
100
AcDbEntity
8
0
100
AcDbCircle
10
91.792909748630663
20
-24.11881063722284
30
0
40
1.5000000000000211
210
0
220
0
230
1
100
AcDbArc
50
92.538056774619903
51
180.00000999316433
0
ELLIPSE
5
105
100
AcDbEntity
8
0
100
AcDbEllipse
10
92.024960565451451
20
-24.171724867264778
30
0
11
-1.6128414591172526
21
0.74852198340040188
31
0.0
40
0.84361002296181287
41
5.2153378479785548
42
5.2587543875306935
0
LINE
5
106
100
AcDbEntity
8
0
100
AcDbLine
10
91.800816425889252
20
-22.618810635840092
30
0
11
106.31500254683515
21
-22.618808098099187
31
0
0
ELLIPSE
5
107
100
AcDbEntity
8
0
100
AcDbEllipse
10
106.09085895031325
20
-24.171722407904994
30
0
11
1.6128411973656733
21
0.74852254739667035
31
0.0
40
0.84361002296181298
41
1.0244316324276823
42
1.0678474592010179
0
ARC
5
108
100
AcDbEntity
8
0
100
AcDbCircle
10
106.32290974863041
20
-24.118808096716954
30
0
40
1.5000081118787687
210
0
220
-0
230
1
100
AcDbArc
50
9.9931643210558118e-06
51
87.461964227290309
0
LINE
5
109
100
AcDbEntity
8
0
100
AcDbLine
10
107.82291786050916
20
-24.118807834447196
30
0
11
107.82291235382914
21
-39.018807834448388
31
0
0
ARC
5
110
100
AcDbEntity
8
0
100
AcDbCircle
10
106.32291235382915
20
-39.018808096716718
30
0
40
1.5000000000000133
210
0
220
0
230
1
100
AcDbArc
50
-89.99998998208774
51
9.9931643210558118e-06
0
LINE
5
111
100
AcDbEntity
8
0
100
AcDbLine
10
106.32291261609748
20
-40.518808096716711
30
0
11
91.792912616097709
21
-40.518810637222572
31
0
0
ARC
5
112
100
AcDbEntity
8
0
100
AcDbCircle
10
91.792912353829394
20
-39.018810637222614
30
0
40
1.5000000000000084
210
0
220
0
230
1
100
AcDbArc
50
180.00000999316433
51
270.00001001791173
0
LINE
5
113
100
AcDbEntity
8
0
100
AcDbLine
10
111.28093420441542
20
5.1261361525110782
30
0
11
111.28093159921667
21
20.02613615251083
31
0
0
ARC
5
114
100
AcDbEntity
8
0
100
AcDbCircle
10
112.78093159921666
20
20.026136414779174
30
0
40
1.5000000000000113
210
0
220
0
230
1
100
AcDbArc
50
92.538056774619363
51
180.00000999316433
0
ELLIPSE
5
115
100
AcDbEntity
8
0
100
AcDbEllipse
10
113.01298241603746
20
19.973222184737224
30
0
11
-1.6128414591172526
21
0.74852198340040188
31
0.0
40
0.84361002296181287
41
5.215337847978553
42
5.2587543875306961
0
LINE
5
116
100
AcDbEntity
8
0
100
AcDbLine
10
112.78883827647526
20
21.526136416161915
30
0
11
127.30302439742111
21
21.526138953902809
31
0
0
ELLIPSE
5
117
100
AcDbEntity
8
0
100
AcDbEllipse
10
127.07888080089924
20
19.973224644097009
30
0
11
1.6128411973656733
21
0.74852254739667035
31
0.0
40
0.84361002296181298
41
1.0244316324276781
42
1.0678474592010372
0
ARC
5
118
100
AcDbEntity
8
0
100
AcDbCircle
10
127.31093159921642
20
20.026138955285045
30
0
40
1.5000081118787687
210
0
220
-0
230
1
100
AcDbArc
50
9.9931643210558118e-06
51
87.461964227290309
0
LINE
5
119
100
AcDbEntity
8
0
100
AcDbLine
10
128.81093971109516
20
20.026139217554807
30
0
11
128.81093420441513
21
5.1261392175536091
31
0
0
ARC
5
120
100
AcDbEntity
8
0
100
AcDbCircle
10
127.31093420441516
20
5.1261389552852785
30
0
40
1.5000000000000022
210
0
220
0
230
1
100
AcDbArc
50
-89.999989982088294
51
9.9931643210558118e-06
0
LINE
5
121
100
AcDbEntity
8
0
100
AcDbLine
10
127.31093446668348
20
3.6261389552852998
30
0
11
112.78093446668372
21
3.6261364147794239
31
0
0
ARC
5
122
100
AcDbEntity
8
0
100
AcDbCircle
10
112.78093420441537
20
5.1261364147793849
30
0
40
1.4999999999999911
210
0
220
0
230
1
100
AcDbArc
50
180.00000999316433
51
270.00001001791276
0
LINE
5
123
100
AcDbEntity
8
0
100
AcDbLine
10
50.935866226510413
20
-17.174812944168934
30
0
11
50.935863621311668
21
-2.2748129441691578
31
0
0
ARC
5
124
100
AcDbEntity
8
0
100
AcDbCircle
10
52.43586362131164
20
-2.2748126819008192
30
0
40
1.4999999999999942
210
0
220
0
230
1
100
AcDbArc
50
92.538056774618596
51
180.00000999316433
0
ELLIPSE
5
125
100
AcDbEntity
8
0
100
AcDbEllipse
10
52.66791443813247
20
-2.3277269119427735
30
0
11
-1.6128414591172526
21
0.74852198340040188
31
0.0
40
0.84361002296181287
41
5.2153378479785495
42
5.2587543875306979
0
LINE
5
126
100
AcDbEntity
8
0
100
AcDbLine
10
52.443770298570278
20
-0.77481268051808572
30
0
11
66.957956419516137
21
-0.77481014277718252
31
0
0
ELLIPSE
5
127
100
AcDbEntity
8
0
100
AcDbEllipse
10
66.733812822994253
20
-2.3277244525829888
30
0
11
1.6128411973656733
21
0.74852254739667035
31
0.0
40
0.84361002296181298
41
1.0244316324276903
42
1.0678474592010336
0
ARC
5
128
100
AcDbEntity
8
0
100
AcDbCircle
10
66.965863621311414
20
-2.2748101413949486
30
0
40
1.5000081118787687
210
0
220
-0
230
1
100
AcDbArc
50
9.9931643210558118e-06
51
87.461964227290309
0
LINE
5
129
100
AcDbEntity
8
0
100
AcDbLine
10
68.46587173319017
20
-2.2748098791251903
30
0
11
68.465866226510144
21
-17.174809879126386
31
0
0
ARC
5
130
100
AcDbEntity
8
0
100
AcDbCircle
10
66.965866226510173
20
-17.174810141394708
30
0
40
1.5000000000000022
210
0
220
0
230
1
100
AcDbArc
50
-89.99998998208774
51
9.9931643210558118e-06
0
LINE
5
131
100
AcDbEntity
8
0
100
AcDbLine
10
66.965866488778502
20
-18.674810141394687
30
0
11
52.435866488778721
21
-18.674812681900576
31
0
0
ARC
5
132
100
AcDbEntity
8
0
100
AcDbCircle
10
52.435866226510399
20
-17.174812681900594
30
0
40
1.5000000000000084
210
0
220
0
230
1
100
AcDbArc
50
180.00000999316433
51
270.00001001791196
0
LINE
5
133
100
AcDbEntity
8
0
100
AcDbLine
10
70.226910461739408
20
2.6460793898150659
30
0
11
70.226907856540663
21
17.546079389814835
31
0
0
ARC
5
134
100
AcDbEntity
8
0
100
AcDbCircle
10
71.726907856540635
20
17.546079652083176
30
0
40
1.4999999999999927
210
0
220
0
230
1
100
AcDbArc
50
92.538056774618852
51
180.00000999316433
0
ELLIPSE
5
135
100
AcDbEntity
8
0
100
AcDbEllipse
10
71.958958673361465
20
17.493165422041223
30
0
11
-1.6128414591172526
21
0.74852198340040188
31
0.0
40
0.84361002296181287
41
5.2153378479785513
42
5.2587543875306997
0
LINE
5
136
100
AcDbEntity
8
0
100
AcDbLine
10
71.734814533799266
20
19.04607965346591
30
0
11
86.249000654745132
21
19.046082191206814
31
0
0
ELLIPSE
5
137
100
AcDbEntity
8
0
100
AcDbEllipse
10
86.024857058223247
20
17.493167881401007
30
0
11
1.6128411973656733
21
0.74852254739667035
31
0.0
40
0.84361002296181298
41
1.0244316324276832
42
1.0678474592010399
0
ARC
5
138
100
AcDbEntity
8
0
100
AcDbCircle
10
86.25690785654038
20
17.546082192589008
30
0
40
1.5000081118788042
210
0
220
-0
230
1
100
AcDbArc
50
9.9931643210558118e-06
51
87.461964227288746
0
LINE
5
139
100
AcDbEntity
8
0
100
AcDbLine
10
87.756915968419165
20
17.546082454858805
30
0
11
87.756910461739125
21
2.6460824548576145
31
0
0
ARC
5
140
100
AcDbEntity
8
0
100
AcDbCircle
10
86.256910461739139
20
2.6460821925892883
30
0
40
1.499999999999998
210
0
220
0
230
1
100
AcDbArc
50
-89.999989982087229
51
9.9931643210558118e-06
0
LINE
5
141
100
AcDbEntity
8
0
100
AcDbLine
10
86.256910724007483
20
1.1460821925893137
30
0
11
71.726910724007695
21
1.1460796520834204
31
0
0
ARC
5
142
100
AcDbEntity
8
0
100
AcDbCircle
10
71.726910461739365
20
2.6460796520833885
30
0
40
1.4999999999999911
210
0
220
0
230
1
100
AcDbArc
50
180.00000999316433
51
270.00001001791225
0
LINE
5
143
100
AcDbEntity
8
0
100
AcDbLine
10
70.226910461739408
20
-17.174812944168934
30
0
11
70.226907856540663
21
-2.2748129441691578
31
0
0
ARC
5
144
100
AcDbEntity
8
0
100
AcDbCircle
10
71.726907856540635
20
-2.2748126819008192
30
0
40
1.4999999999999942
210
0
220
0
230
1
100
AcDbArc
50
92.538056774618852
51
180.00000999316433
0
ELLIPSE
5
145
100
AcDbEntity
8
0
100
AcDbEllipse
10
71.958958673361465
20
-2.3277269119427735
30
0
11
-1.6128414591172526
21
0.74852198340040188
31
0.0
40
0.84361002296181287
41
5.2153378479785442
42
5.2587543875306935
0
LINE
5
146
100
AcDbEntity
8
0
100
AcDbLine
10
71.734814533799266
20
-0.77481268051808572
30
0
11
86.249000654745132
21
-0.77481014277718252
31
0
0
ELLIPSE
5
147
100
AcDbEntity
8
0
100
AcDbEllipse
10
86.024857058223247
20
-2.3277244525829888
30
0
11
1.6128411973656733
21
0.74852254739667035
31
0.0
40
0.84361002296181298
41
1.0244316324276841
42
1.0678474592010336
0
ARC
5
148
100
AcDbEntity
8
0
100
AcDbCircle
10
86.256907856540423
20
-2.2748101413949482
30
0
40
1.5000081118787687
210
0
220
-0
230
1
100
AcDbArc
50
9.9931643210558118e-06
51
87.461964227290309
0
LINE
5
149
100
AcDbEntity
8
0
100
AcDbLine
10
87.756915968419165
20
-2.2748098791251903
30
0
11
87.756910461739125
21
-17.174809879126386
31
0
0
ARC
5
150
100
AcDbEntity
8
0
100
AcDbCircle
10
86.256910461739139
20
-17.174810141394708
30
0
40
1.4999999999999951
210
0
220
0
230
1
100
AcDbArc
50
-89.999989982087229
51
9.9931643210558118e-06
0
LINE
5
151
100
AcDbEntity
8
0
100
AcDbLine
10
86.256910724007483
20
-18.67481014139468
30
0
11
71.726910724007695
21
-18.674812681900576
31
0
0
ARC
5
152
100
AcDbEntity
8
0
100
AcDbCircle
10
71.726910461739365
20
-17.174812681900608
30
0
40
1.4999999999999911
210
0
220
0
230
1
100
AcDbArc
50
180.00000999316433
51
270.00001001791225
0
LWPOLYLINE
5
153
100
AcDbEntity
8
0
100
AcDbPolyline
90
4
70
1
43
0.0
10
79.535153964507515
20
24.780727339468616
10
65.787099638033155
20
24.780727339468616
10
65.787099638033155
20
35.231846880956901
10
79.535153964507515
20
35.231846880956901
0
CIRCLE
5
154
100
AcDbEntity
8
0
100
AcDbCircle
10
47.149646138171441
20
50.623837815203522
30
0
40
1.5999993400000001
210
-0
220
0
230
1
0
LINE
5
155
100
AcDbEntity
8
0
100
AcDbLine
10
70.226910461739408
20
-39.018810899490937
30
0
11
70.226907856540663
21
-24.118810899491166
31
0
0
ARC
5
156
100
AcDbEntity
8
0
100
AcDbCircle
10
71.726907856540635
20
-24.118810637222833
30
0
40
1.5000000000000022
210
0
220
0
230
1
100
AcDbArc
50
92.538056774618852
51
180.00000999316433
0
ELLIPSE
5
157
100
AcDbEntity
8
0
100
AcDbEllipse
10
71.958958673361465
20
-24.171724867264778
30
0
11
-1.6128414591172526
21
0.74852198340040188
31
0.0
40
0.84361002296181287
41
5.2153378479785619
42
5.2587543875307023
0
LINE
5
158
100
AcDbEntity
8
0
100
AcDbLine
10
71.734814533799252
20
-22.618810635840092
30
0
11
86.249000654745146
21
-22.618808098099187
31
0
0
ELLIPSE
5
159
100
AcDbEntity
8
0
100
AcDbEllipse
10
86.024857058223247
20
-24.171722407904994
30
0
11
1.6128411973656733
21
0.74852254739667035
31
0.0
40
0.84361002296181298
41
1.0244316324276823
42
1.0678474592010241
0
ARC
5
160
100
AcDbEntity
8
0
100
AcDbCircle
10
86.256907856540423
20
-24.118808096716954
30
0
40
1.5000081118787687
210
0
220
-0
230
1
100
AcDbArc
50
9.9931643210558118e-06
51
87.461964227290309
0
LINE
5
161
100
AcDbEntity
8
0
100
AcDbLine
10
87.756915968419165
20
-24.118807834447196
30
0
11
87.756910461739125
21
-39.018807834448388
31
0
0
ARC
5
162
100
AcDbEntity
8
0
100
AcDbCircle
10
86.256910461739139
20
-39.018808096716711
30
0
40
1.5000000000000044
210
0
220
0
230
1
100
AcDbArc
50
-89.999989982087229
51
9.9931643210558118e-06
0
LINE
5
163
100
AcDbEntity
8
0
100
AcDbLine
10
86.256910724007483
20
-40.51880809671669
30
0
11
71.726910724007695
21
-40.518810637222572
31
0
0
ARC
5
164
100
AcDbEntity
8
0
100
AcDbCircle
10
71.726910461739394
20
-39.0188106372226
30
0
40
1.5000000000000084
210
0
220
0
230
1
100
AcDbArc
50
180.00000999316433
51
270.00001001791111
0
LINE
5
165
100
AcDbEntity
8
0
100
AcDbLine
10
89.963982452706418
20
-17.174812944168924
30
0
11
89.963979847507687
21
-2.2748129441691578
31
0
0
ARC
5
166
100
AcDbEntity
8
0
100
AcDbCircle
10
91.463979847507659
20
-2.2748126819008241
30
0
40
1.5000000000000075
210
0
220
0
230
1
100
AcDbArc
50
92.538056774618838
51
180.00000999316433
0
ELLIPSE
5
167
100
AcDbEntity
8
0
100
AcDbEllipse
10
91.696030664328475
20
-2.3277269119427735
30
0
11
-1.6128414591172526
21
0.74852198340040188
31
0.0
40
0.84361002296181287
41
5.2153378479785388
42
5.2587543875306917
0
LINE
5
168
100
AcDbEntity
8
0
100
AcDbLine
10
91.47188652476629
20
-0.77481268051808594
30
0
11
105.98607264571214
21
-0.77481014277718252
31
0
0
ELLIPSE
5
169
100
AcDbEntity
8
0
100
AcDbEllipse
10
105.76192904919026
20
-2.3277244525829888
30
0
11
1.6128411973656733
21
0.74852254739667035
31
0.0
40
0.84361002296181298
41
1.0244316324276841
42
1.0678474592010274
0
ARC
5
170
100
AcDbEntity
8
0
100
AcDbCircle
10
105.99397984750743
20
-2.2748101413949482
30
0
40
1.5000081118787687
210
0
220
-0
230
1
100
AcDbArc
50
9.9931643210558118e-06
51
87.461964227290849
0
LINE
5
171
100
AcDbEntity
8
0
100
AcDbLine
10
107.49398795938617
20
-2.2748098791251903
30
0
11
107.49398245270615
21
-17.174809879126386
31
0
0
ARC
5
172
100
AcDbEntity
8
0
100
AcDbCircle
10
105.99398245270618
20
-17.174810141394719
30
0
40
1.5000000000000022
210
0
220
0
230
1
100
AcDbArc
50
-89.999989982088294
51
9.9931643210558118e-06
0
LINE
5
173
100
AcDbEntity
8
0
100
AcDbLine
10
105.99398271497449
20
-18.674810141394698
30
0
11
91.463982714974733
21
-18.674812681900576
31
0
0
ARC
5
174
100
AcDbEntity
8
0
100
AcDbCircle
10
91.463982452706432
20
-17.174812681900605
30
0
40
1.5000000000000266
210
0
220
0
230
1
100
AcDbArc
50
180.00000999316433
51
270.00001001791111
0
LINE
5
175
100
AcDbEntity
8
0
100
AcDbLine
10
92.237789978341439
20
5.1261361525110782
30
0
11
92.237787373142694
21
20.02613615251083
31
0
0
ARC
5
176
100
AcDbEntity
8
0
100
AcDbCircle
10
93.737787373142694
20
20.026136414779163
30
0
40
1.5000000000000211
210
0
220
0
230
1
100
AcDbArc
50
92.538056774619903
51
180.00000999316433
0
ELLIPSE
5
177
100
AcDbEntity
8
0
100
AcDbEllipse
10
93.969838189963482
20
19.973222184737224
30
0
11
-1.6128414591172526
21
0.74852198340040188
31
0.0
40
0.84361002296181287
41
5.2153378479785619
42
5.2587543875306997
0
LINE
5
178
100
AcDbEntity
8
0
100
AcDbLine
10
93.745694050401283
20
21.526136416161915
30
0
11
108.25988017134716
21
21.526138953902809
31
0
0
ELLIPSE
5
179
100
AcDbEntity
8
0
100
AcDbEllipse
10
108.03573657482528
20
19.973224644097009
30
0
11
1.6128411973656733
21
0.74852254739667035
31
0.0
40
0.84361002296181298
41
1.0244316324276859
42
1.0678474592010336
0
ARC
5
180
100
AcDbEntity
8
0
100
AcDbCircle
10
108.26778737314244
20
20.026138955285045
30
0
40
1.5000081118787687
210
0
220
-0
230
1
100
AcDbArc
50
9.9931643210558118e-06
51
87.461964227290309
0
LINE
5
181
100
AcDbEntity
8
0
100
AcDbLine
10
109.7677954850212
20
20.026139217554807
30
0
11
109.76778997834117
21
5.1261392175536091
31
0
0
ARC
5
182
100
AcDbEntity
8
0
100
AcDbCircle
10
108.26778997834118
20
5.1261389552852785
30
0
40
1.5000000000000022
210
0
220
0
230
1
100
AcDbArc
50
-89.99998998208774
51
9.9931643210558118e-06
0
LINE
5
183
100
AcDbEntity
8
0
100
AcDbLine
10
108.26779024060951
20
3.6261389552852998
30
0
11
93.737790240609741
21
3.6261364147794239
31
0
0
ARC
5
184
100
AcDbEntity
8
0
100
AcDbCircle
10
93.737789978341439
20
5.1261364147793937
30
0
40
1.5000000000000266
210
0
220
0
230
1
100
AcDbArc
50
180.00000999316433
51
270.00001001791111
0
LWPOLYLINE
5
185
100
AcDbEntity
8
0
100
AcDbPolyline
90
8
70
1
43
0.0
10
44.149647171468473
20
-41.92100129204249
42
0.4144445938239914
10
45.949646885366434
20
-43.721000529103478
10
131.94964402434346
20
-43.721000529102874
42
0.41444487183083256
10
133.74964707610144
20
-41.921001292042483
10
133.7496470761009
20
51.824001454533509
42
0.41444372153190467
10
131.94964402434346
20
53.623996876893514
10
45.949646885366455
20
53.623996876902311
42
0.41444344352649443
10
44.149647171468445
20
51.824001454533501
0
ENDSEC
0
SECTION
2
OBJECTS
0
DICTIONARY
5
C
100
AcDbDictionary
3
ACAD_GROUP
350
D
3
ACAD_MLINESTYLE
350
17
0
DICTIONARY
5
D
100
AcDbDictionary
0
DICTIONARY
5
1A
330
C
100
AcDbDictionary
0
DICTIONARY
5
17
100
AcDbDictionary
0
ENDSEC
0
EOF
